<?xml version="1.0" encoding="UTF-8"?>
<!-- Generator: visioncortex VTracer 0.6.2 -->
<svg version="1.1" xmlns="http://www.w3.org/2000/svg" width="1280" height="960">
<path d="M0 0 C422.4 0 844.8 0 1280 0 C1280 316.8 1280 633.6 1280 960 C857.6 960 435.2 960 0 960 C0 643.2 0 326.4 0 0 Z " fill="#F2F2F2" transform="translate(0,0)"/>
<path d="M0 0 C0.98463728 -0.00320648 1.96927456 -0.00641296 2.98374933 -0.0097166 C6.29122279 -0.01803412 9.598516 -0.01208609 12.90599251 -0.00622082 C15.29800509 -0.00924069 17.6900167 -0.01312935 20.0820266 -0.01781338 C25.28695621 -0.025969 30.49184989 -0.02788807 35.69678307 -0.02431011 C43.43679074 -0.01900354 51.17676031 -0.02509795 58.91676384 -0.03339304 C73.54446198 -0.04863866 88.17214281 -0.05033754 102.79984723 -0.04787002 C114.09489629 -0.04603781 125.38993967 -0.04779544 136.68498802 -0.05209446 C138.30737447 -0.05269686 139.92976092 -0.05329806 141.55214737 -0.05389806 C143.99688781 -0.05480531 146.44162824 -0.05571398 148.88636868 -0.05663041 C171.61830224 -0.06506082 194.35023367 -0.06939502 217.08216858 -0.06522369 C217.93923845 -0.06506732 218.79630832 -0.06491094 219.67935001 -0.06474983 C224.02338115 -0.06394404 228.36741228 -0.06309827 232.71144341 -0.06223653 C233.57419126 -0.06206544 234.43693911 -0.06189435 235.32583084 -0.06171808 C237.07051667 -0.06137142 238.81520251 -0.06102289 240.55988834 -0.06067249 C267.7094591 -0.05531484 294.85899739 -0.06324659 322.00856209 -0.08170605 C352.50721627 -0.10241829 383.00585034 -0.11315026 413.50451195 -0.10913056 C416.75595482 -0.10873521 420.00739769 -0.10837366 423.25884056 -0.10803318 C424.45973301 -0.10789708 424.45973301 -0.10789708 425.68488592 -0.10775824 C437.77475945 -0.10659188 449.86461267 -0.11324343 461.95448112 -0.1238451 C475.7027651 -0.1358887 489.45100432 -0.13746574 503.19928895 -0.12505493 C510.89373399 -0.11842003 518.58807207 -0.1200719 526.28250859 -0.13364345 C532.02598587 -0.14284562 537.76936002 -0.13638595 543.51282693 -0.12379565 C545.837796 -0.1211351 548.1627775 -0.12355757 550.48773442 -0.13153151 C553.64527745 -0.14161068 556.8022575 -0.13323806 559.95977783 -0.12025452 C561.31709228 -0.13121854 561.31709228 -0.13121854 562.70182723 -0.14240405 C570.80830419 -0.07320413 578.15318276 1.3934111 584.10573006 7.25447559 C591.92723409 16.65646366 593.26223235 25.02444839 593.09468269 36.91153431 C593.10104806 38.56286438 593.11091535 40.21418397 593.12394834 41.86547488 C593.1494336 46.37040294 593.1254666 50.87387766 593.09289122 55.3787092 C593.06644902 60.24920746 593.08640575 65.11955202 593.10042 69.9900713 C593.120534 79.5169741 593.09809207 89.04331927 593.06101879 98.57015274 C593.01938918 109.66839077 593.01976596 120.76650972 593.02170911 131.86481114 C593.02370935 151.66563379 592.98712267 171.46619752 592.92897224 191.26692677 C592.87258883 210.4759591 592.84429097 229.68476367 592.84694099 248.89387989 C592.84710082 250.0777525 592.84726064 251.2616251 592.84742531 252.48137263 C592.84758673 253.66321132 592.84774815 254.84505002 592.84791446 256.062702 C592.85067407 277.94453278 592.82711729 299.82626693 592.79130159 321.70806638 C592.77924121 329.44298416 592.77498399 337.17788418 592.77317238 344.91281033 C592.77044323 354.33591187 592.75257545 363.75885045 592.71584114 373.18188284 C592.6973818 377.98897861 592.68518248 382.79586607 592.69021797 387.60299969 C592.69460454 392.00400757 592.68048683 396.40455498 592.65162387 400.80546685 C592.64438337 402.3967145 592.64383701 403.98800978 592.65069303 405.57925913 C592.69479495 417.09033091 591.24353953 424.72915138 583.10573006 433.25447559 C576.04984027 438.65898692 569.90900618 439.55038862 561.30606651 439.5117445 C560.31950593 439.51525057 559.33294534 439.51875665 558.31648898 439.52236897 C554.99644477 439.53170463 551.67657513 439.526754 548.35652351 439.52190113 C545.95783684 439.52563629 543.55915138 439.53023728 541.16046786 439.53563178 C535.93783289 439.54533055 530.71523194 439.54877452 525.49258995 439.54671955 C517.72618027 439.54367114 509.95981165 439.55199001 502.19340995 439.5624688 C487.51554497 439.58181932 472.83769396 439.58743742 458.15981773 439.58858292 C446.82518401 439.58950172 435.49055578 439.59361693 424.15592384 439.59998417 C420.89419008 439.60177924 417.63245631 439.60355886 414.37072253 439.60533392 C413.15443234 439.60599707 413.15443234 439.60599707 411.91357063 439.60667361 C389.10269169 439.61898358 366.29181465 439.62687458 343.48093224 439.62598705 C342.19066765 439.62594032 342.19066765 439.62594032 340.87433711 439.62589264 C336.51453002 439.62572642 332.15472292 439.62552834 327.79491583 439.62532322 C326.92903095 439.62528333 326.06314608 439.62524344 325.17102227 439.62520234 C323.41999152 439.62512147 321.66896078 439.62503787 319.91793003 439.62495156 C292.67451911 439.62372604 265.43115798 439.63873877 238.18776131 439.66609669 C207.58509307 439.69681528 176.98245754 439.71402931 146.3797729 439.71217024 C143.11678171 439.71202098 139.85379052 439.71192357 136.59079933 439.71186161 C135.78735898 439.7118383 134.98391864 439.71181499 134.15613161 439.71179098 C121.22443877 439.71172942 108.29278913 439.72450335 95.36110913 439.74172614 C82.36500204 439.75867677 69.36895818 439.76066094 56.37284616 439.7475075 C48.65192279 439.74011448 40.93119147 439.74378669 33.21028843 439.76339218 C27.44528029 439.77679428 21.68045046 439.76929083 15.91545495 439.75364573 C13.5830345 439.75056404 11.25059331 439.75425195 8.9181973 439.76536588 C5.74804319 439.77947216 2.57887867 439.76891138 -0.59124184 439.75225353 C-1.94985757 439.76715807 -1.94985757 439.76715807 -3.3359201 439.78236371 C-12.12934634 439.68466335 -19.9511968 436.95395938 -26.42942619 430.88728809 C-32.16174561 424.49766272 -34.14361616 416.79049241 -34.14595222 408.34312344 C-34.14885911 407.68096553 -34.15176599 407.01880763 -34.15476096 406.33658433 C-34.16203808 404.12606622 -34.15512842 401.91582769 -34.14823723 399.70531178 C-34.15054257 398.10113584 -34.15371959 396.49696096 -34.15769172 394.89278829 C-34.16603838 390.49073827 -34.16191499 386.08877499 -34.15571928 381.68672466 C-34.15119522 376.93679562 -34.15817838 372.18688153 -34.16367912 367.43695545 C-34.17257565 358.13368567 -34.17064983 348.83044816 -34.16485384 339.52717711 C-34.16033784 331.96544236 -34.15972418 324.40371665 -34.16190147 316.84198093 C-34.16220794 315.76591235 -34.16251441 314.68984376 -34.16283016 313.58116703 C-34.16346961 311.39515635 -34.16411804 309.20914567 -34.16477534 307.02313499 C-34.17047954 286.52071728 -34.16391962 266.01831746 -34.15317461 245.51590268 C-34.14424157 227.92647271 -34.14578894 210.33706915 -34.15501213 192.74763966 C-34.16571756 172.32188844 -34.16992752 151.8961529 -34.1637876 131.47039926 C-34.16315051 129.2918001 -34.16252177 127.11320095 -34.16190147 124.93460178 C-34.16159292 123.86269421 -34.16128437 122.79078664 -34.16096647 121.68639702 C-34.15924016 114.13536194 -34.16215331 106.5843368 -34.16686058 99.03330326 C-34.17247255 89.82863845 -34.17094639 80.62400774 -34.16029909 71.41934682 C-34.15504627 66.72359625 -34.152979 62.02790251 -34.1595974 57.33215237 C-34.16556713 53.03153811 -34.1622648 48.73103327 -34.15164229 44.43042891 C-34.14941258 42.87665359 -34.15053491 41.32286899 -34.15539387 39.76909967 C-34.19194564 27.10709574 -33.67252034 17.09988584 -24.89426994 7.25447559 C-17.43056538 0.99081765 -9.41706456 -0.04551876 0 0 Z " fill="#F2F2F2" transform="translate(359.8942699432373,236.7455244064331)"/>
<path d="M0 0 C0.98463728 -0.00320648 1.96927456 -0.00641296 2.98374933 -0.0097166 C6.29122279 -0.01803412 9.598516 -0.01208609 12.90599251 -0.00622082 C15.29800509 -0.00924069 17.6900167 -0.01312935 20.0820266 -0.01781338 C25.28695621 -0.025969 30.49184989 -0.02788807 35.69678307 -0.02431011 C43.43679074 -0.01900354 51.17676031 -0.02509795 58.91676384 -0.03339304 C73.54446198 -0.04863866 88.17214281 -0.05033754 102.79984723 -0.04787002 C114.09489629 -0.04603781 125.38993967 -0.04779544 136.68498802 -0.05209446 C138.30737447 -0.05269686 139.92976092 -0.05329806 141.55214737 -0.05389806 C143.99688781 -0.05480531 146.44162824 -0.05571398 148.88636868 -0.05663041 C171.61830224 -0.06506082 194.35023367 -0.06939502 217.08216858 -0.06522369 C217.93923845 -0.06506732 218.79630832 -0.06491094 219.67935001 -0.06474983 C224.02338115 -0.06394404 228.36741228 -0.06309827 232.71144341 -0.06223653 C233.57419126 -0.06206544 234.43693911 -0.06189435 235.32583084 -0.06171808 C237.07051667 -0.06137142 238.81520251 -0.06102289 240.55988834 -0.06067249 C267.7094591 -0.05531484 294.85899739 -0.06324659 322.00856209 -0.08170605 C352.50721627 -0.10241829 383.00585034 -0.11315026 413.50451195 -0.10913056 C416.75595482 -0.10873521 420.00739769 -0.10837366 423.25884056 -0.10803318 C424.45973301 -0.10789708 424.45973301 -0.10789708 425.68488592 -0.10775824 C437.77475945 -0.10659188 449.86461267 -0.11324343 461.95448112 -0.1238451 C475.7027651 -0.1358887 489.45100432 -0.13746574 503.19928895 -0.12505493 C510.89373399 -0.11842003 518.58807207 -0.1200719 526.28250859 -0.13364345 C532.02598587 -0.14284562 537.76936002 -0.13638595 543.51282693 -0.12379565 C545.837796 -0.1211351 548.1627775 -0.12355757 550.48773442 -0.13153151 C553.64527745 -0.14161068 556.8022575 -0.13323806 559.95977783 -0.12025452 C561.31709228 -0.13121854 561.31709228 -0.13121854 562.70182723 -0.14240405 C570.80830419 -0.07320413 578.15318276 1.3934111 584.10573006 7.25447559 C591.92723409 16.65646366 593.26223235 25.02444839 593.09468269 36.91153431 C593.10104806 38.56286438 593.11091535 40.21418397 593.12394834 41.86547488 C593.1494336 46.37040294 593.1254666 50.87387766 593.09289122 55.3787092 C593.06644902 60.24920746 593.08640575 65.11955202 593.10042 69.9900713 C593.120534 79.5169741 593.09809207 89.04331927 593.06101879 98.57015274 C593.01938918 109.66839077 593.01976596 120.76650972 593.02170911 131.86481114 C593.02370935 151.66563379 592.98712267 171.46619752 592.92897224 191.26692677 C592.87258883 210.4759591 592.84429097 229.68476367 592.84694099 248.89387989 C592.84710082 250.0777525 592.84726064 251.2616251 592.84742531 252.48137263 C592.84758673 253.66321132 592.84774815 254.84505002 592.84791446 256.062702 C592.85067407 277.94453278 592.82711729 299.82626693 592.79130159 321.70806638 C592.77924121 329.44298416 592.77498399 337.17788418 592.77317238 344.91281033 C592.77044323 354.33591187 592.75257545 363.75885045 592.71584114 373.18188284 C592.6973818 377.98897861 592.68518248 382.79586607 592.69021797 387.60299969 C592.69460454 392.00400757 592.68048683 396.40455498 592.65162387 400.80546685 C592.64438337 402.3967145 592.64383701 403.98800978 592.65069303 405.57925913 C592.69479495 417.09033091 591.24353953 424.72915138 583.10573006 433.25447559 C576.04984027 438.65898692 569.90900618 439.55038862 561.30606651 439.5117445 C560.31950593 439.51525057 559.33294534 439.51875665 558.31648898 439.52236897 C554.99644477 439.53170463 551.67657513 439.526754 548.35652351 439.52190113 C545.95783684 439.52563629 543.55915138 439.53023728 541.16046786 439.53563178 C535.93783289 439.54533055 530.71523194 439.54877452 525.49258995 439.54671955 C517.72618027 439.54367114 509.95981165 439.55199001 502.19340995 439.5624688 C487.51554497 439.58181932 472.83769396 439.58743742 458.15981773 439.58858292 C446.82518401 439.58950172 435.49055578 439.59361693 424.15592384 439.59998417 C420.89419008 439.60177924 417.63245631 439.60355886 414.37072253 439.60533392 C413.15443234 439.60599707 413.15443234 439.60599707 411.91357063 439.60667361 C389.10269169 439.61898358 366.29181465 439.62687458 343.48093224 439.62598705 C342.19066765 439.62594032 342.19066765 439.62594032 340.87433711 439.62589264 C336.51453002 439.62572642 332.15472292 439.62552834 327.79491583 439.62532322 C326.92903095 439.62528333 326.06314608 439.62524344 325.17102227 439.62520234 C323.41999152 439.62512147 321.66896078 439.62503787 319.91793003 439.62495156 C292.67451911 439.62372604 265.43115798 439.63873877 238.18776131 439.66609669 C207.58509307 439.69681528 176.98245754 439.71402931 146.3797729 439.71217024 C143.11678171 439.71202098 139.85379052 439.71192357 136.59079933 439.71186161 C135.78735898 439.7118383 134.98391864 439.71181499 134.15613161 439.71179098 C121.22443877 439.71172942 108.29278913 439.72450335 95.36110913 439.74172614 C82.36500204 439.75867677 69.36895818 439.76066094 56.37284616 439.7475075 C48.65192279 439.74011448 40.93119147 439.74378669 33.21028843 439.76339218 C27.44528029 439.77679428 21.68045046 439.76929083 15.91545495 439.75364573 C13.5830345 439.75056404 11.25059331 439.75425195 8.9181973 439.76536588 C5.74804319 439.77947216 2.57887867 439.76891138 -0.59124184 439.75225353 C-1.94985757 439.76715807 -1.94985757 439.76715807 -3.3359201 439.78236371 C-12.12934634 439.68466335 -19.9511968 436.95395938 -26.42942619 430.88728809 C-32.16174561 424.49766272 -34.14361616 416.79049241 -34.14595222 408.34312344 C-34.14885911 407.68096553 -34.15176599 407.01880763 -34.15476096 406.33658433 C-34.16203808 404.12606622 -34.15512842 401.91582769 -34.14823723 399.70531178 C-34.15054257 398.10113584 -34.15371959 396.49696096 -34.15769172 394.89278829 C-34.16603838 390.49073827 -34.16191499 386.08877499 -34.15571928 381.68672466 C-34.15119522 376.93679562 -34.15817838 372.18688153 -34.16367912 367.43695545 C-34.17257565 358.13368567 -34.17064983 348.83044816 -34.16485384 339.52717711 C-34.16033784 331.96544236 -34.15972418 324.40371665 -34.16190147 316.84198093 C-34.16220794 315.76591235 -34.16251441 314.68984376 -34.16283016 313.58116703 C-34.16346961 311.39515635 -34.16411804 309.20914567 -34.16477534 307.02313499 C-34.17047954 286.52071728 -34.16391962 266.01831746 -34.15317461 245.51590268 C-34.14424157 227.92647271 -34.14578894 210.33706915 -34.15501213 192.74763966 C-34.16571756 172.32188844 -34.16992752 151.8961529 -34.1637876 131.47039926 C-34.16315051 129.2918001 -34.16252177 127.11320095 -34.16190147 124.93460178 C-34.16159292 123.86269421 -34.16128437 122.79078664 -34.16096647 121.68639702 C-34.15924016 114.13536194 -34.16215331 106.5843368 -34.16686058 99.03330326 C-34.17247255 89.82863845 -34.17094639 80.62400774 -34.16029909 71.41934682 C-34.15504627 66.72359625 -34.152979 62.02790251 -34.1595974 57.33215237 C-34.16556713 53.03153811 -34.1622648 48.73103327 -34.15164229 44.43042891 C-34.14941258 42.87665359 -34.15053491 41.32286899 -34.15539387 39.76909967 C-34.19194564 27.10709574 -33.67252034 17.09988584 -24.89426994 7.25447559 C-17.43056538 0.99081765 -9.41706456 -0.04551876 0 0 Z M-15.14426994 21.75447559 C-17.86500225 25.64123603 -18.01941467 28.54848773 -18.02011108 33.17781639 C-18.02271883 34.42264496 -18.02532658 35.66747354 -18.02801335 36.95002419 C-18.0258511 38.33898881 -18.02359443 39.72795328 -18.02125359 41.11691761 C-18.0224051 42.58651071 -18.02399283 44.05610353 -18.02598083 45.52569574 C-18.03016993 49.57402451 -18.02808534 53.62232983 -18.02499461 57.67065871 C-18.02273906 62.03264981 -18.02622089 66.39463679 -18.02897453 70.75662708 C-18.03342943 79.30543682 -18.03245703 87.85423779 -18.02956189 96.40304787 C-18.02730691 103.34804088 -18.02699575 110.29303144 -18.02808571 117.23802471 C-18.02823894 118.2250694 -18.02839217 119.21211408 -18.02855005 120.22906921 C-18.02886976 122.23398515 -18.02919398 124.23890109 -18.02952264 126.24381702 C-18.03237658 145.05922935 -18.02909169 163.8746368 -18.02372228 182.69004833 C-18.01925362 198.84962873 -18.02003084 215.00920196 -18.02464104 231.16878223 C-18.02998713 249.91671522 -18.03210262 268.66464393 -18.02902877 287.41257757 C-18.02871021 289.40996579 -18.02839584 291.40735402 -18.02808571 293.40474224 C-18.02793143 294.38759911 -18.02777716 295.37045598 -18.02761821 296.38309639 C-18.02675321 303.32371954 -18.02821555 310.26433999 -18.03056526 317.20496273 C-18.03336381 325.65746464 -18.03262379 334.10995726 -18.02728452 342.56245811 C-18.02464836 346.87857485 -18.02364101 351.19467608 -18.02693367 355.51079273 C-18.02989834 359.45650701 -18.02830094 363.40219129 -18.02295612 367.34790283 C-18.02183268 368.78054421 -18.02242152 370.2131881 -18.02483191 371.6458279 C-18.02784269 373.58287554 -18.02417745 375.51993022 -18.02011108 377.45697594 C-18.01994873 378.53603378 -18.01978638 379.61509162 -18.01961911 380.72684819 C-18.06444067 383.24943667 -18.06444067 383.24943667 -16.89426994 385.25447559 C-11.05398058 382.87509844 -7.06508173 377.38480427 -2.88279533 372.83675098 C1.95524396 367.57898211 6.73371532 362.46138876 12.25343513 357.9053545 C14.09966174 356.25988405 15.64367512 354.54797114 17.23463631 352.65681934 C22.20462892 346.90247201 27.66276092 341.65095233 33.07838631 336.32088184 C37.40769944 332.03326354 41.55952634 327.6815518 45.52858162 323.05867481 C47.81891781 320.43861531 50.25372895 318.01185421 52.73073006 315.56697559 C54.08037849 314.23086231 54.08037849 314.23086231 55.45729256 312.86775684 C56.33127693 312.00537403 57.20526131 311.14299122 58.10573006 310.25447559 C59.77320598 308.58861858 61.4397323 306.9218109 63.10573006 305.25447559 C64.1252143 304.23489734 65.14474795 303.21536848 66.16432381 302.19588184 C66.70838875 301.6518169 67.25245369 301.10775196 67.81300545 300.5472002 C77.93007088 290.43013477 77.93007088 290.43013477 88.04713631 280.31306934 C88.56462944 279.79534962 89.08212257 279.27762989 89.61529732 278.74422169 C91.0295165 277.33065404 92.44609687 275.91944984 93.86281013 274.50838184 C95.41282864 272.950771 96.9337393 271.3638438 98.42994881 269.75447559 C105.88991933 261.86293653 114.03779946 256.23789431 125.10573006 255.25447559 C137.54810388 255.27095556 146.87511066 258.82126392 155.75670153 267.65660864 C156.31556518 268.22266221 156.87442883 268.78871578 157.45022774 269.37192249 C158.06027576 269.9816728 158.67032378 270.5914231 159.29885811 271.21965069 C161.33244631 273.25462275 163.35880449 275.29664199 165.38527107 277.33870411 C166.84555959 278.80283269 168.3063054 280.2665053 169.76747322 281.72975636 C172.90835182 284.87694915 176.04609789 288.02722056 179.18147659 291.17989254 C184.13877239 296.16425193 189.10370443 301.14095719 194.06982613 306.11652088 C204.60855265 316.67743783 215.13881382 327.24677734 225.66823006 337.81697559 C237.03907452 349.23185056 248.4113469 360.64528008 259.79339927 372.04898113 C264.73062802 376.99617968 269.66293751 381.94821568 274.59155285 386.90399468 C277.65661462 389.9839649 280.72580504 393.05979517 283.79613686 396.13451099 C285.21970408 397.5618252 286.64153983 398.99086875 288.06151581 400.42175579 C289.99915862 402.37381786 291.94287658 404.31962471 293.88821602 406.26401234 C294.72985757 407.11643878 294.72985757 407.11643878 295.58850199 407.98608595 C299.20002384 411.57870937 302.53144175 414.81496296 307.66823006 415.69197559 C310.22156862 415.40337725 310.22156862 415.40337725 312.41823006 413.69197559 C314.31861565 411.28267441 314.31861565 411.28267441 314.79323006 408.00447559 C313.80491677 402.61367586 310.92508915 400.02339032 307.10573006 396.25447559 C306.08092537 395.22773731 306.08092537 395.22773731 305.03541756 394.18025684 C303.67603746 392.82346112 302.31151375 391.4717975 300.94166756 390.12556934 C299.10573006 388.25447559 299.10573006 388.25447559 296.60573006 385.19197559 C294.01566722 382.14865176 291.24753218 379.69539492 288.21901131 377.10603809 C283.49905829 372.97062639 279.10684057 368.52574964 275.10573006 363.69197559 C272.40167546 360.46172659 269.38361607 357.80044897 266.18385506 355.07088184 C261.47205594 350.952486 257.09555442 346.51211476 253.10573006 341.69197559 C251.05658752 339.24286673 248.92823338 337.17913373 246.48073006 335.12947559 C242.70375957 331.93135116 239.41990137 328.41622567 236.10573006 324.75447559 C231.70960345 319.89935183 227.20913312 315.38222807 222.10573006 311.25447559 C222.49743784 305.84467356 225.64636132 302.36505651 228.79323006 298.19197559 C229.98342469 296.57972142 231.17217582 294.96640083 232.35963631 293.35213184 C232.97725838 292.51569141 233.59488045 291.67925098 234.23121834 290.81746387 C237.29285307 286.6313423 240.26375218 282.38297911 243.23073006 278.12947559 C243.81588387 277.2919878 244.40103767 276.45450001 245.00392342 275.5916338 C248.64574701 270.37095852 252.25810509 265.1306713 255.85573006 259.87947559 C268.31203665 241.70816285 268.31203665 241.70816285 274.79323006 233.56697559 C277.94646212 229.58123133 280.61220024 225.37119226 283.30104256 221.06306934 C285.69971457 217.33007112 288.30479244 213.7737353 290.93776131 210.20369434 C293.35924473 206.90960428 295.73537904 203.58542592 298.10573006 200.25447559 C301.11778086 196.02362956 304.15520653 191.81459977 307.23073006 187.62947559 C310.74652558 182.82550398 314.02182841 177.88672795 317.24635506 172.88338184 C319.10573006 170.25447559 319.10573006 170.25447559 321.19948006 168.16463184 C323.13406005 166.22608754 324.14936369 164.56921653 325.35573006 162.12947559 C327.77946176 157.57940258 330.78432379 153.82503963 334.06276131 149.86385059 C336.13819959 147.21300399 337.9060751 144.4964423 339.66823006 141.62947559 C346.1492973 131.29480079 352.61348581 124.97128665 364.73073006 121.94197559 C374.83378585 120.10505636 384.44434038 121.68484893 393.35011482 126.96980762 C396.58241719 129.33503848 398.88132007 132.40232386 401.29323006 135.56697559 C401.80047615 136.20570606 402.30772224 136.84443653 402.83033943 137.50252247 C405.18696081 140.51936463 407.33278372 143.52655139 409.19166756 146.87556934 C411.07687404 150.20353589 413.15418559 153.02320594 415.54323006 156.00447559 C420.36201303 162.12754977 424.76297965 168.49469965 429.13331795 174.94270802 C434.27825582 182.53185083 439.55827916 190.0197566 444.86305428 197.49763966 C446.4354204 199.72057612 447.99000389 201.95563521 449.54323006 204.19197559 C453.40974383 209.73049532 457.38664503 215.18943243 461.34767342 220.66048145 C464.67021207 225.25366988 467.95118918 229.87095384 471.18385506 234.52791309 C473.8702402 238.33908552 476.61704403 242.10578888 479.35573006 245.87947559 C485.01634363 253.68744301 490.51209544 261.59671169 495.94801521 269.56209278 C500.55755714 276.30046154 505.30148907 282.94379012 510.05641365 289.57991505 C512.44274752 292.91369789 514.81414162 296.2572044 517.16823006 299.61385059 C523.26846019 308.38043291 523.26846019 308.38043291 529.73073006 316.87947559 C533.06000493 321.07100871 535.98220103 325.50861408 538.92482185 329.97371387 C547.49182808 342.93646516 556.50413843 355.61283201 565.76198006 368.09041309 C567.19313537 370.02247277 568.61283373 371.96317376 570.01198006 373.91853809 C570.53791756 374.64814747 571.06385506 375.37775684 571.60573006 376.12947559 C572.02854256 376.72502247 572.45135506 377.32056934 572.88698006 377.93416309 C574.17911223 379.54705007 574.17911223 379.54705007 577.10573006 380.25447559 C577.24307762 335.45462847 577.34879536 290.65480365 577.41212203 245.85478748 C577.41962623 240.56516494 577.42739217 235.27554282 577.4353199 229.98592091 C577.43689376 228.932857 577.43846763 227.87979309 577.44008918 226.79481815 C577.46619364 209.74604578 577.51349924 192.69739486 577.56864683 175.64869453 C577.62476555 158.15380184 577.65808479 140.65897273 577.67026103 123.16399372 C577.67849177 112.36949604 577.7044831 101.57534164 577.75322886 90.78094964 C577.78495644 83.37777935 577.79452795 75.9747864 577.78673832 68.57155307 C577.78289707 64.30081683 577.78876493 60.03068025 577.82096291 55.76005077 C577.85025504 51.84618203 577.85157662 47.93331367 577.83112343 44.01939796 C577.8285973 42.60736529 577.83613117 41.19526908 577.85502915 39.78336062 C577.96572027 30.99899027 577.14763239 24.02915646 571.10573006 17.25447559 C568.39003664 16.34924445 566.83322142 16.12882784 564.04555905 16.12682509 C563.21444999 16.12380913 562.38334092 16.12079316 561.52704674 16.11768579 C560.1548577 16.12034 560.1548577 16.12034 558.75494766 16.12304783 C557.78048087 16.12099519 556.80601408 16.11894256 555.80201799 16.11682773 C552.5051411 16.11112985 549.20830561 16.1126184 545.91142464 16.1140337 C543.53651343 16.11145167 541.16160266 16.10843896 538.7866925 16.1050303 C532.92395045 16.09778819 527.06121685 16.09525676 521.19847137 16.09470124 C514.17881174 16.09378855 507.15916056 16.08712389 500.13950455 16.08035442 C483.17268152 16.06428309 466.20585937 16.0583901 449.23903009 16.05360567 C441.21613585 16.05127112 433.19324233 16.04766865 425.17034866 16.04391029 C397.71862465 16.03107453 370.26690105 16.02035477 342.8151741 16.01690769 C341.09145601 16.01668606 339.36773792 16.01646427 337.64401983 16.01624234 C335.91609211 16.0160217 334.18816439 16.01580122 332.46023667 16.01558089 C328.99359775 16.01513833 325.52695882 16.01469122 322.0603199 16.01424122 C321.20079296 16.01413183 320.34126603 16.01402244 319.45569282 16.01390973 C291.57363665 16.01027757 263.69160646 15.99435165 235.80956025 15.97105085 C206.34541997 15.94647283 176.88129454 15.93273582 147.4171437 15.93153977 C144.18480801 15.93136831 140.95247233 15.93115288 137.72013664 15.93090534 C136.52625955 15.93082169 136.52625955 15.93082169 135.30826373 15.93073635 C122.48235617 15.92958421 109.65647521 15.9185485 96.83057664 15.90401829 C83.94734082 15.8896751 71.06413922 15.88640397 58.18089761 15.89445826 C50.5211775 15.89892465 42.86156756 15.89501377 35.20186186 15.87921976 C29.49117861 15.86836401 23.78059473 15.87307889 18.06991552 15.88399163 C15.75297179 15.88596285 13.43601718 15.88280521 11.11908878 15.87414727 C7.98192918 15.8631616 4.84533769 15.87046644 1.70819473 15.8825388 C0.34302919 15.87114601 0.34302919 15.87114601 -1.04971546 15.85952306 C-7.33548889 15.91213358 -10.8117 16.94050899 -15.14426994 21.75447559 Z " fill="#626464" transform="translate(359.8942699432373,236.7455244064331)"/>
<path d="M0 0 C8.59435768 7.72609209 15.11556313 19.81604339 15.859375 31.40234375 C16.05781527 46.05385068 12.5526749 57.06087374 2.59375 67.98828125 C-7.23068939 77.39572406 -19.0827235 79.77534034 -32.2109375 79.50390625 C-44.13885523 78.94657798 -55.14224001 72.65654304 -63.35546875 64.15625 C-64.85245197 62.24448553 -66.1249452 60.3366359 -67.34375 58.23828125 C-67.72917969 57.60277344 -68.11460937 56.96726562 -68.51171875 56.3125 C-74.55851823 45.41952909 -74.40294516 33.3730885 -71.44140625 21.58203125 C-67.37998643 9.20987693 -59.72056558 0.87694743 -48.34375 -5.13671875 C-32.08570399 -12.71008702 -14.47593941 -10.88108112 0 0 Z " fill="#626464" transform="translate(514.34375,332.76171875)"/>
<path d="M0 0 C5.72782739 0.02523272 9.78147424 0.82363494 14.9375 3.25 C15.5975 2.59 16.2575 1.93 16.9375 1.25 C20.0625 1.625 20.0625 1.625 22.9375 2.25 C23.03039826 11.76017006 23.10136512 21.27018263 23.14474869 30.78070831 C23.16557628 35.19739368 23.19380492 39.6137674 23.23925781 44.03027344 C23.28288889 48.29671774 23.30667339 52.56286327 23.31700897 56.82951355 C23.32436951 58.45294392 23.33874281 60.07635893 23.36042023 61.69966125 C23.48582103 71.48408537 23.29677425 78.53784754 17.125 86.625 C11.84479835 90.54743551 5.29217105 90.96093566 -1.0625 90.25 C-6.04731825 89.0239316 -10.55204161 87.07959097 -14.0625 83.25 C-14.875 79.5 -14.875 79.5 -15.0625 76.25 C-12.7890625 75.53515625 -12.7890625 75.53515625 -10.0625 75.25 C-8.2109375 76.68359375 -8.2109375 76.68359375 -6.4375 78.6875 C-3.11576981 81.83274358 -0.96745387 82.83311406 3.625 83 C7.5409584 82.73929819 8.78032504 82.36316597 12.0625 80 C15.25084046 75.32376732 15.04583605 71.88347471 14.9375 66.25 C10.85785719 67.55155006 10.85785719 67.55155006 6.9375 69.25 C-0.10328933 70.31965838 -5.10410082 68.95674718 -10.99609375 65.01953125 C-14.01470913 62.43459218 -15.01379234 60.05156525 -16.0625 56.25 C-16.40539062 55.11691406 -16.74828125 53.98382812 -17.1015625 52.81640625 C-20.2741946 39.97817616 -20.46182118 21.12388496 -14.0625 9.25 C-11.95622176 6.29753137 -9.71010402 3.72387672 -7.0625 1.25 C-5.23418343 -0.57831657 -2.45879312 0.03387545 0 0 Z " fill="#626464" transform="translate(762.0625,746.75)"/>
<path d="M0 0 C2.64 0 5.28 0 8 0 C12.65411781 9.15228975 17.07337091 18.36801863 21.25 27.75 C21.52258636 28.36042145 21.79517273 28.9708429 22.07601929 29.59976196 C26.23924493 38.92627393 30.31404521 48.28915181 34.3125 57.6875 C34.78655273 58.79770508 35.26060547 59.90791016 35.74902344 61.05175781 C36.39339355 62.57881348 36.39339355 62.57881348 37.05078125 64.13671875 C37.42887939 65.03092529 37.80697754 65.92513184 38.1965332 66.84643555 C39 69 39 69 39 71 C39.99 71.33 40.98 71.66 42 72 C42.33 48.24 42.66 24.48 43 0 C44.98 0 46.96 0 49 0 C50.81115624 1.81115624 50.11995376 4.29877501 50.12442017 6.70901489 C50.11902725 7.93791946 50.11902725 7.93791946 50.11352539 9.19165039 C50.11367142 10.05011063 50.11381744 10.90857086 50.1139679 11.79304504 C50.11326847 14.64460738 50.1054747 17.49610525 50.09765625 20.34765625 C50.09579218 22.31920842 50.09436822 24.29076105 50.09336853 26.26231384 C50.08954251 31.46226267 50.07971152 36.66218375 50.06866455 41.86212158 C50.05845222 47.16393661 50.05387129 52.4657561 50.04882812 57.76757812 C50.03808933 68.17839763 50.02101191 78.58919651 50 89 C47.03 89 44.06 89 41 89 C41 88.34 41 87.68 41 87 C40.34 87 39.68 87 39 87 C38.28275757 85.38375732 38.28275757 85.38375732 37.55102539 83.73486328 C33.96091301 75.64879219 30.36295019 67.56633523 26.74609375 59.4921875 C26.39221588 58.7020929 26.03833801 57.91199829 25.67373657 57.09796143 C24.2335584 53.88297006 22.79310811 50.66810124 21.35180664 47.45361328 C20.27427167 45.05008674 19.19763139 42.64616088 18.12109375 40.2421875 C17.81046494 39.55003143 17.49983612 38.85787537 17.17979431 38.14474487 C13.73597512 30.45125312 10.37900268 22.72343469 7 15 C6.67 39.42 6.34 63.84 6 89 C4.35 89 2.7 89 1 89 C-1.54164316 86.45835684 -1.2396178 84.84511354 -1.25994873 81.37916565 C-1.25432922 80.59468552 -1.24870972 79.81020538 -1.24291992 79.00195312 C-1.24481827 78.17582016 -1.24671661 77.34968719 -1.24867249 76.4985199 C-1.25238646 73.75933433 -1.24166722 71.02041212 -1.23046875 68.28125 C-1.22927718 66.38317903 -1.22882374 64.48510746 -1.2290802 62.58703613 C-1.22751425 58.60567544 -1.21921617 54.62440452 -1.20581055 50.64306641 C-1.18882056 45.53152293 -1.18499615 40.42007822 -1.18575573 35.30850983 C-1.18548421 31.38811291 -1.18000582 27.46773772 -1.17275429 23.54734802 C-1.16956496 21.66222803 -1.1675996 19.77710557 -1.16686058 17.89198303 C-1.16469981 15.26062805 -1.15596125 12.62937918 -1.14526367 9.99804688 C-1.14571686 9.21356674 -1.14617004 8.42908661 -1.14663696 7.62083435 C-1.11447712 2.22895425 -1.11447712 2.22895425 0 0 Z " fill="#626464" transform="translate(444,725)"/>
<path d="M0 0 C1.30710937 -0.04898438 2.61421875 -0.09796875 3.9609375 -0.1484375 C7.625 0.375 7.625 0.375 10.4140625 2.3984375 C15.58995674 9.36669088 16.04912791 15.90698351 15.99609375 24.296875 C16.01346025 26.39453301 16.03104477 28.49218923 16.04882812 30.58984375 C16.05893425 33.87063729 16.0624864 37.15132036 16.06079102 40.43212891 C16.06435194 43.61654315 16.09164131 46.80011101 16.12109375 49.984375 C16.11291122 50.96670105 16.1047287 51.9490271 16.09629822 52.96112061 C16.0165716 58.32492557 16.0165716 58.32492557 18.65649414 62.77441406 C19.30610107 63.30260742 19.95570801 63.83080078 20.625 64.375 C20.625 65.695 20.625 67.015 20.625 68.375 C13.07374275 68.74637331 13.07374275 68.74637331 10.8125 66.875 C10.420625 66.38 10.02875 65.885 9.625 65.375 C6.63910534 65.03647173 6.63910534 65.03647173 5.0625 66.8125 C4.588125 67.328125 4.11375 67.84375 3.625 68.375 C-0.85693098 70.61596549 -6.5247331 69.96925674 -11.375 69.375 C-15.8231092 67.41837358 -18.55780909 64.87318334 -20.875 60.625 C-21.94167503 53.69161233 -22.08432792 46.95479639 -19.375 40.375 C-13.90531913 33.87051464 -7.23678817 31.47081261 0.56640625 28.65625 C3.42123021 27.4603595 5.47655385 26.59574963 7.625 24.375 C8.56031037 19.61743701 8.14486519 14.87343497 6.5625 10.3125 C3.7907982 7.5407982 1.46427067 6.9707489 -2.375 6.375 C-5.8331183 7.0987922 -7.15723842 8.15118949 -9.625 10.6875 C-11.3737917 13.37314439 -12.01458609 15.22137831 -12.375 18.375 C-14.355 18.375 -16.335 18.375 -18.375 18.375 C-19.82640043 14.15274419 -19.09959763 11.23490435 -17.46484375 7.2421875 C-13.70197255 0.79540458 -6.72623969 0.17179001 0 0 Z " fill="#626464" transform="translate(714.375,746.625)"/>
<path d="M0 0 C2.84403626 1.39564005 4.62687518 2.8426138 7 5 C9.49361571 3.79618552 11.68143083 2.54571278 14 1 C19.55455439 -0.4232968 26.56417616 -1.5416272 31.94140625 0.87109375 C35.72095434 3.76022199 37.79295897 7.49289074 39 12 C39.39875654 16.24268101 39.34946921 20.45673028 39.29296875 24.71484375 C39.28872391 25.92572159 39.28447906 27.13659943 39.28010559 28.38417053 C39.26336989 32.23551057 39.22572572 36.08631923 39.1875 39.9375 C39.17244662 42.55533096 39.15875936 45.17317016 39.14648438 47.79101562 C39.11348299 54.19419042 39.06333386 60.59705723 39 67 C37.00045254 67.04254356 34.99958364 67.04080783 33 67 C31.34445311 65.34445311 31.87516856 63.393628 31.87402344 61.11645508 C31.87021667 60.07479691 31.86640991 59.03313873 31.86248779 57.95991516 C31.86146057 56.82458847 31.86043335 55.68926178 31.859375 54.51953125 C31.84104307 52.1347561 31.82147241 49.74999022 31.80078125 47.36523438 C31.77182285 43.59058103 31.75000052 39.81651964 31.74951172 36.04174805 C31.74617677 32.40880307 31.71161289 28.77723697 31.671875 25.14453125 C31.6789447 24.01932571 31.6860144 22.89412018 31.69329834 21.7348175 C31.65824735 15.05920334 31.65824735 15.05920334 28.64160156 9.30737305 C25.55572983 6.61194109 24.08682568 5.91659539 20 6 C15.80197169 7.59525076 12.86970668 9.55697536 10 13 C9.38862045 15.57071296 9.38862045 15.57071296 9.45410156 18.41113281 C9.43438293 19.49195129 9.41466431 20.57276978 9.39434814 21.68634033 C9.39311951 22.84687927 9.39189087 24.00741821 9.390625 25.203125 C9.37408875 26.39605164 9.35755249 27.58897827 9.34051514 28.8180542 C9.2919247 32.6287546 9.27063862 36.4390556 9.25 40.25 C9.22184973 42.83335355 9.19192365 45.4166884 9.16015625 48 C9.08616253 54.33326056 9.03458473 60.66640828 9 67 C3.25 67.125 3.25 67.125 1 66 C1.00666183 65.38914047 1.01332367 64.77828094 1.02018738 64.14891052 C1.08671657 57.77339965 1.13187356 51.39798791 1.16479492 45.0222168 C1.17985252 42.64489738 1.20030289 40.26760561 1.22631836 37.89038086 C1.26283403 34.46721561 1.27975709 31.04441868 1.29296875 27.62109375 C1.30845261 26.56353378 1.32393646 25.50597382 1.33988953 24.41636658 C1.34123273 18.48554507 0.9137461 14.21317192 -2 9 C-4.12545364 6.77443897 -4.12545364 6.77443897 -7 6 C-12.72665511 6.83296802 -15.97531857 9.07114431 -20 13 C-20.98103288 15.94309863 -21.15221687 17.9496903 -21.20532227 21.0222168 C-21.22526749 22.04304855 -21.24521271 23.06388031 -21.26576233 24.11564636 C-21.29083107 25.76576469 -21.29083107 25.76576469 -21.31640625 27.44921875 C-21.33718735 28.5769722 -21.35796844 29.70472565 -21.37937927 30.86665344 C-21.44482847 34.4735396 -21.50373844 38.08049929 -21.5625 41.6875 C-21.60568961 44.13086702 -21.64930404 46.57422656 -21.69335938 49.01757812 C-21.80050516 55.01164074 -21.90228029 61.00577671 -22 67 C-23.99954746 67.04254356 -26.00041636 67.04080783 -28 67 C-29 66 -29 66 -29.12025452 63.41209412 C-29.11803391 62.25959671 -29.11581329 61.1070993 -29.11352539 59.91967773 C-29.11344986 58.61840439 -29.11337433 57.31713104 -29.11329651 55.97642517 C-29.10818909 54.54548098 -29.10297308 53.11453718 -29.09765625 51.68359375 C-29.09579203 50.2277074 -29.09436815 48.77182043 -29.09336853 47.31593323 C-29.08954365 43.47720621 -29.07971364 39.63851681 -29.06866455 35.79980469 C-29.05844978 31.88542184 -29.05387077 27.97103294 -29.04882812 24.05664062 C-29.03809134 16.37107657 -29.02101529 8.68554355 -29 1 C-27.35 1 -25.7 1 -24 1 C-23.34 2.65 -22.68 4.3 -22 6 C-21.41734375 5.566875 -20.8346875 5.13375 -20.234375 4.6875 C-13.59417434 0.17717502 -8.00659472 -1.56089294 0 0 Z " fill="#626464" transform="translate(642,747)"/>
<path d="M0 0 C7.2394667 5.3434159 9.27231228 12.34207491 10.625 20.9375 C10.87376567 24.62375491 10.98413251 28.25639179 10.625 31.9375 C9.625 32.9375 9.625 32.9375 6.48217773 33.05102539 C5.09097303 33.05086633 3.69976239 33.04517506 2.30859375 33.03515625 C1.57753922 33.0337413 0.84648468 33.03232635 0.09327698 33.03086853 C-2.25035632 33.02525408 -4.59389539 33.01269922 -6.9375 33 C-8.52278508 32.99498686 -10.10807166 32.99042363 -11.69335938 32.98632812 C-15.5872761 32.97527997 -19.48112205 32.95800572 -23.375 32.9375 C-23.23793295 34.98991368 -23.09481838 37.04192397 -22.94921875 39.09375 C-22.87018311 40.23650391 -22.79114746 41.37925781 -22.7097168 42.55664062 C-22.11406939 48.57307044 -21.19938413 54.65009136 -16.75 59.0625 C-12.56299567 61.38861352 -9.07781935 61.96356968 -4.375 60.9375 C-1.36114696 59.32017593 -0.48388354 58.18853704 0.890625 55.01953125 C1.37789062 53.40111328 1.37789062 53.40111328 1.875 51.75 C2.21015625 50.66332031 2.5453125 49.57664062 2.890625 48.45703125 C3.13296875 47.62558594 3.3753125 46.79414062 3.625 45.9375 C6.1 45.4425 6.1 45.4425 8.625 44.9375 C10.29596497 50.70992445 9.16589996 55.62314313 6.625 60.9375 C2.81745525 65.49737889 -0.79065154 67.50415908 -6.63671875 68.2109375 C-13.4695802 68.49701544 -17.74960505 66.74211494 -23.375 62.9375 C-23.375 62.2775 -23.375 61.6175 -23.375 60.9375 C-24.365 60.6075 -25.355 60.2775 -26.375 59.9375 C-27.2890625 58.08203125 -27.2890625 58.08203125 -28 55.75 C-28.23976563 54.99332031 -28.47953125 54.23664062 -28.7265625 53.45703125 C-32.39710075 39.1950001 -32.47117984 19.73395192 -25.47265625 6.55859375 C-24.24624842 4.74735087 -23.06545665 3.3313853 -21.375 1.9375 C-20.385 1.9375 -19.395 1.9375 -18.375 1.9375 C-18.375 1.2775 -18.375 0.6175 -18.375 -0.0625 C-12.37543375 -1.80885262 -5.94993669 -1.87312822 0 0 Z " fill="#626464" transform="translate(827.375,748.0625)"/>
<path d="M0 0 C8.18673886 8.0561986 8.14366479 18.88514405 8.25 29.625 C8.25950684 30.41245605 8.26901367 31.19991211 8.27880859 32.01123047 C8.23101731 40.49506796 6.88841764 47.95492752 2 55 C-0.93500732 57.41089887 -4.23064677 57.41480743 -7.97265625 57.32421875 C-11.30253674 56.79169451 -13.43013328 55.09175198 -16 53 C-16.5775 52.566875 -17.155 52.13375 -17.75 51.6875 C-22.28644569 45.56329832 -21.36712835 36.95256034 -21.375 29.75 C-21.39949219 28.58597656 -21.42398438 27.42195312 -21.44921875 26.22265625 C-21.47606838 18.23041735 -20.87270028 9.67466924 -15.55224609 3.25244141 C-10.62366521 -1.12111212 -6.27403619 -1.94711468 0 0 Z " fill="#F3F3F3" transform="translate(535,753)"/>
<path d="M0 0 C3.80174074 0.91643828 5.21291106 2.9351226 7.35546875 6.07421875 C10.8050287 13.6259581 10.81970726 20.93875361 10.76171875 29.10546875 C10.76945313 30.19472656 10.7771875 31.28398438 10.78515625 32.40625 C10.76610222 40.28508987 10.52402953 48.10802885 5.51171875 54.60546875 C2.88383934 56.66515802 0.96941548 57.5139294 -2.30078125 58.16796875 C-7.1625694 57.31000614 -10.27189842 55.35436529 -13.48828125 51.60546875 C-19.02829324 40.12052696 -17.94857211 21.61016496 -14.48828125 9.60546875 C-13.35998903 7.20004576 -12.23141458 5.66553541 -10.48828125 3.60546875 C-10.05 3.074375 -9.61171875 2.54328125 -9.16015625 1.99609375 C-6.32843315 -0.35926472 -3.5598457 -0.10913396 0 0 Z " fill="#F3F3F3" transform="translate(767.48828125,752.39453125)"/>
<path d="M0 0 C6.45183197 4.57233748 9.43874297 10.52040794 10.96337891 18.21972656 C11.68968671 23.52015949 11.74174782 28.84490241 11.79296875 34.1875 C11.81141846 35.32276123 11.82986816 36.45802246 11.84887695 37.62768555 C11.78904745 45.81958837 11.08240086 55.21942121 5.51367188 61.69360352 C-0.21494326 66.87520418 -5.00283966 68.08137987 -12.6640625 67.94140625 C-18.38074743 67.34698843 -22.02594962 64.89515057 -26.51953125 61.5 C-31.50439643 54.9484629 -32.29300281 46.64680109 -32.70703125 38.625 C-32.74828125 37.90828125 -32.78953125 37.1915625 -32.83203125 36.453125 C-33.16045812 25.20450475 -31.50990125 12.72594298 -24.39453125 3.6875 C-17.54186163 -1.57152552 -8.12196809 -4.12544411 0 0 Z M-19.95703125 8.75 C-24.89690556 16.86550779 -25.17403124 24.85972286 -25.08203125 34.1875 C-25.09363281 35.36763672 -25.10523438 36.54777344 -25.1171875 37.76367188 C-25.16578622 48.23076675 -25.16578622 48.23076675 -20.25512695 57.17382812 C-15.96132342 60.87598888 -13.39825439 61.73792119 -7.77734375 61.85546875 C-5.26210387 61.57547035 -3.81257013 61.04161001 -1.70703125 59.625 C-0.18163939 57.44887784 -0.18163939 57.44887784 0.98046875 54.875 C1.60501953 53.61429688 1.60501953 53.61429688 2.2421875 52.328125 C6.37946605 41.68501438 5.9789638 24.3478947 2.29296875 13.625 C0.69225602 10.18832602 -1.0114222 7.30824387 -3.70703125 4.625 C-10.0015178 2.3360958 -15.16918787 4.22814792 -19.95703125 8.75 Z " fill="#626464" transform="translate(538.70703125,748.375)"/>
<path d="M0 0 C0.08132642 3.04221065 0.14065374 6.0822238 0.1875 9.125 C0.21263672 9.9809375 0.23777344 10.836875 0.26367188 11.71875 C0.33845128 18.1996315 -0.66422393 22.46401455 -5.1875 27.375 C-8.85168878 29.49208685 -11.92387642 29.89165203 -16 29 C-19.38733615 27.09077417 -21.43762171 25.69029431 -22.6953125 21.91015625 C-23.5545247 16.56293136 -22.78631926 12.73674274 -20 8 C-16.55516089 4.88037298 -13.15575378 2.96310088 -8.875 1.1875 C-7.84117187 0.74792969 -6.80734375 0.30835938 -5.7421875 -0.14453125 C-3 -1 -3 -1 0 0 Z " fill="#F3F3F3" transform="translate(723,781)"/>
<path d="M0 0 C5.79230777 6.30090065 6.43672938 12.38154991 6.3515625 20.6171875 C2.20574363 20.64605501 -1.94004966 20.66394077 -6.0859375 20.6796875 C-7.86194336 20.69225586 -7.86194336 20.69225586 -9.67382812 20.70507812 C-10.79853516 20.70830078 -11.92324219 20.71152344 -13.08203125 20.71484375 C-14.64522095 20.72269897 -14.64522095 20.72269897 -16.23999023 20.73071289 C-18.6484375 20.6171875 -18.6484375 20.6171875 -19.6484375 19.6171875 C-20.17253728 12.14876563 -19.05823595 6.52130358 -14.2109375 0.6796875 C-9.84595833 -2.83358842 -4.68973343 -3.93404178 0 0 Z " fill="#F2F2F2" transform="translate(824.6484375,754.3828125)"/>
<path d="M0 0 C1.65 0.33 3.3 0.66 5 1 C5 22.12 5 43.24 5 65 C3.35 65 1.7 65 0 65 C-1.79096045 63.20903955 -1.12766791 60.53667215 -1.12939453 58.11914062 C-1.13254669 56.86113647 -1.13569885 55.60313232 -1.13894653 54.30700684 C-1.13715675 52.92342087 -1.1351058 51.53983522 -1.1328125 50.15625 C-1.13348559 48.74759911 -1.13445565 47.33894834 -1.13571167 45.93029785 C-1.13718842 42.97451677 -1.13503483 40.01876586 -1.13037109 37.06298828 C-1.12467381 33.26625416 -1.12795293 29.46959072 -1.13394356 25.67285919 C-1.13754979 22.76303572 -1.1364103 19.85322912 -1.13381577 16.94340515 C-1.13314667 15.543106 -1.13397432 14.14280533 -1.13629532 12.74250793 C-1.13882283 10.78862536 -1.13429033 8.83473745 -1.12939453 6.88085938 C-1.12859894 5.76690796 -1.12780334 4.65295654 -1.12698364 3.50524902 C-1 1 -1 1 0 0 Z " fill="#626464" transform="translate(593,749)"/>
<path d="M0 0 C1.99954746 -0.04254356 4.00041636 -0.04080783 6 0 C7 1 7 1 7.1328125 3.03125 C7.13023437 3.8459375 7.12765625 4.660625 7.125 5.5 C7.12757813 6.3146875 7.13015625 7.129375 7.1328125 7.96875 C7 10 7 10 6 11 C3.5625 11.1875 3.5625 11.1875 1 11 C-1 9 -1 9 -1.1875 5.5 C-1 2 -1 2 0 0 Z " fill="#626464" transform="translate(592,725)"/>
</svg>
